<svg width="44" height="44" viewBox="0 0 44 44" fill="none" xmlns="http://www.w3.org/2000/svg">
<rect opacity="0.1" width="44" height="44" rx="3" fill="white"/>
<path d="M19.8906 29.7662C14.4369 29.7662 10 25.3326 10 19.8831C10 14.4335 14.4369 10 19.8906 10C25.3444 10 29.7813 14.4335 29.7813 19.8831C29.7813 25.3326 25.3444 29.7662 19.8906 29.7662ZM19.8906 11.8736C15.4708 11.8736 11.875 15.4666 11.875 19.8831C11.875 24.2995 15.4708 27.8926 19.8906 27.8926C24.3105 27.8926 27.9063 24.2995 27.9063 19.8831C27.9063 15.4666 24.3105 11.8736 19.8906 11.8736ZM33.7255 33.7257C34.0916 33.3598 34.0916 32.7666 33.7255 32.4008L29.5302 28.2087C29.164 27.8428 28.5704 27.8428 28.2043 28.2087C27.8382 28.5746 27.8382 29.1677 28.2043 29.5336L32.3996 33.7257C32.5827 33.9086 32.8226 34 33.0626 34C33.3025 34 33.5424 33.9086 33.7255 33.7257Z" fill="white"/>
</svg>
