<svg width="50" height="50" viewBox="0 0 50 50" fill="none" xmlns="http://www.w3.org/2000/svg">

<path d="M41.7978 13.0388C41.6226 12.8198 41.3574 12.6924 41.0769 12.6924H16.5095L15.8225 9.7155C15.7258 9.29669 15.3529 9 14.9231 9H10.9231C10.4133 9 10 9.41331 10 9.92312C10 10.4329 10.4133 10.8462 10.9231 10.8462H14.1887L18.852 31.0537C18.9486 31.4726 19.3216 31.7692 19.7514 31.7692H38.2461C38.7559 31.7692 39.1692 31.3559 39.1692 30.8462C39.1692 30.3364 38.7559 29.9231 38.2461 29.9231H20.4858L19.7758 26.8462H38.3078C38.7395 26.8462 39.1136 26.5469 39.2083 26.1257L41.9775 13.8181C42.0391 13.5444 41.9729 13.2578 41.7978 13.0388ZM37.5693 25H19.3497L16.9356 14.5385H39.9231L37.5693 25Z" fill="white"/>
<path d="M23.5384 33C21.6722 33 20.1538 34.5183 20.1538 36.3846C20.1538 38.2509 21.6721 39.7692 23.5384 39.7692C25.4047 39.7692 26.9231 38.2509 26.9231 36.3846C26.9231 34.5183 25.4047 33 23.5384 33ZM23.5384 37.9231C22.6901 37.9231 22 37.2329 22 36.3846C22 35.5363 22.6901 34.8462 23.5384 34.8462C24.3867 34.8462 25.0769 35.5363 25.0769 36.3846C25.0769 37.2329 24.3867 37.9231 23.5384 37.9231Z" fill="white"/>
<path d="M34.6153 33C32.7491 33 31.2307 34.5183 31.2307 36.3846C31.2307 38.2509 32.749 39.7692 34.6153 39.7692C36.4816 39.7692 38 38.2509 38 36.3846C38 34.5183 36.4817 33 34.6153 33ZM34.6153 37.9231C33.767 37.9231 33.0769 37.233 33.0769 36.3847C33.0769 35.5364 33.767 34.8462 34.6153 34.8462C35.4637 34.8462 36.1538 35.5364 36.1538 36.3847C36.1538 37.233 35.4637 37.9231 34.6153 37.9231Z" fill="white"/>
</svg>
