<svg width="50" height="50" viewBox="0 0 50 50" fill="none" xmlns="http://www.w3.org/2000/svg">
<path d="M38.6653 13.7771C37.0869 11.9862 34.8974 11 32.5 11C29.1283 11 26.9936 13.0138 25.7966 14.7031C25.486 15.1415 25.2218 15.5811 25 15.9947C24.7782 15.5811 24.5141 15.1415 24.2034 14.7031C23.0064 13.0138 20.8717 11 17.5 11C15.1026 11 12.9131 11.9863 11.3347 13.7772C9.82919 15.4856 9 17.7736 9 20.2197C9 22.8824 10.0396 25.3589 12.2716 28.0134C14.2664 30.3859 17.1362 32.8314 20.4594 35.6632C21.6977 36.7185 22.9782 37.8098 24.3416 39.0026L24.3825 39.0384C24.5592 39.1932 24.7796 39.2705 25 39.2705C25.2204 39.2705 25.4408 39.1931 25.6175 39.0384L25.6584 39.0026C27.0217 37.8098 28.3023 36.7186 29.5408 35.6631C32.8638 32.8315 35.7336 30.386 37.7284 28.0134C39.9604 25.3589 41 22.8824 41 20.2197C41 17.7736 40.1708 15.4856 38.6653 13.7771ZM28.3246 34.2361C27.2571 35.1458 26.1584 36.0819 25 37.089C23.8416 36.0821 22.7429 35.1458 21.6753 34.236C15.1716 28.6939 10.875 25.0326 10.875 20.2197C10.875 18.2303 11.5378 16.3826 12.7414 15.0169C13.9587 13.6357 15.6487 12.875 17.5 12.875C20.0706 12.875 21.7323 14.4586 22.6735 15.7871C23.5178 16.9786 23.9584 18.1798 24.1086 18.6408C24.2343 19.0268 24.5941 19.2879 25 19.2879C25.4059 19.2879 25.7657 19.0268 25.8914 18.6408C26.0416 18.1798 26.4822 16.9786 27.3265 15.7871C28.2677 14.4586 29.9294 12.875 32.5 12.875C34.3513 12.875 36.0413 13.6357 37.2586 15.0169C38.4622 16.3826 39.125 18.2303 39.125 20.2197C39.125 25.0326 34.8284 28.6939 28.3246 34.2361Z" fill="white"/>
</svg>
