<svg width="50" height="50" viewBox="0 0 50 50" fill="none" xmlns="http://www.w3.org/2000/svg">

<path d="M35.6785 28.9427C34.6076 27.3799 33.213 26.0955 31.5934 25.1643C33.4901 23.467 34.686 21.0018 34.686 18.2623C34.6861 13.1551 30.5311 9 25.4238 9C20.3166 9 16.1615 13.1551 16.1615 18.2623C16.1615 21.0018 17.3574 23.4669 19.2542 25.1643C17.6345 26.0956 16.24 27.3799 15.169 28.9427C13.7501 31.0134 13 33.4315 13 35.9359V41H37.8476V35.9359C37.8477 33.4315 37.0976 31.0133 35.6785 28.9427ZM18.101 18.2623C18.101 14.2244 21.386 10.9394 25.4239 10.9394C29.4617 10.9394 32.7467 14.2244 32.7467 18.2623C32.7467 22.3002 29.4617 25.5852 25.4239 25.5852C21.386 25.5852 18.101 22.3002 18.101 18.2623ZM14.9394 39.0606V35.9359C14.9394 31.8273 17.3192 28.1418 21.0403 26.4197C22.346 27.1242 23.839 27.5245 25.4238 27.5245C27.0085 27.5245 28.5015 27.1241 29.8072 26.4197C33.5284 28.1417 35.9081 31.8273 35.9081 35.9359V39.0606H14.9394Z" fill="white"/>
</svg>
